<?xml version="1.0" standalone="no"?>
<!DOCTYPE svg PUBLIC "-//W3C//DTD SVG 20010904//EN"
 "http://www.w3.org/TR/2001/REC-SVG-20010904/DTD/svg10.dtd">
<svg version="1.0" xmlns="http://www.w3.org/2000/svg"
 width="700.000000pt" height="700.000000pt" viewBox="0 0 700.000000 700.000000"
 preserveAspectRatio="xMidYMid meet">
<metadata>
Created by potrace 1.14, written by Peter Selinger 2001-2017
</metadata>
<g transform="translate(0.000000,700.000000) scale(0.100000,-0.100000)"
fill="#000000" stroke="none">
<path d="M1123 6675 c-344 -63 -635 -307 -753 -633 -64 -177 -61 -29 -58
-2552 l3 -2295 22 -76 c107 -377 378 -639 748 -725 77 -18 170 -19 2390 -19
l2310 0 89 23 c173 44 343 140 466 264 124 125 219 292 262 464 l23 89 0 2310
c0 2220 -1 2313 -19 2390 -87 375 -354 647 -738 752 -59 16 -224 18 -2368 19
-1860 2 -2319 0 -2377 -11z m4110 -1453 l437 -437 -145 -145 -145 -145 290
-290 c159 -160 290 -295 290 -300 0 -6 -191 -201 -425 -435 l-425 -425 -295
295 -295 295 -194 -194 -194 -194 19 -54 c48 -141 64 -250 64 -443 0 -141 -4
-205 -18 -270 -123 -575 -532 -989 -1100 -1112 -146 -32 -426 -32 -574 0 -458
99 -833 392 -1033 807 -151 315 -186 657 -100 990 121 470 468 836 930 983
269 85 565 88 844 7 l90 -26 765 765 c421 422 768 766 771 766 3 0 202 -197
443 -438z"/>
<path d="M4069 4358 l-716 -723 -109 52 c-200 95 -385 131 -574 113 -245 -24
-452 -120 -621 -289 -399 -399 -391 -1050 18 -1453 86 -86 122 -114 203 -162
315 -186 706 -195 1018 -24 403 220 603 690 488 1142 -15 56 -50 149 -81 214
l-56 116 436 436 435 435 295 -295 295 -295 145 145 145 145 -295 295 -295
295 142 143 143 142 -145 145 c-80 80 -147 145 -150 145 -3 0 -327 -325 -721
-722z m-1167 -979 c77 -16 204 -79 270 -133 148 -121 240 -336 225 -521 -22
-253 -174 -450 -412 -531 -68 -23 -96 -27 -190 -27 -92 0 -124 4 -192 27 -205
67 -370 244 -418 448 -19 83 -19 225 1 302 53 205 224 375 434 430 67 18 209
20 282 5z"/>
<path d="M2695 2966 c-38 -17 -90 -72 -104 -109 -17 -45 -13 -124 8 -166 70
-136 240 -159 339 -47 86 99 52 255 -69 317 -45 22 -129 25 -174 5z"/>
</g>
</svg>
